<svg viewBox="95 214 322 84" fill="none" xmlns="http://www.w3.org/2000/svg">
<path d="M112.442 262.811L129.697 282.27V257.622L112.442 262.811Z" fill="#0F7ED9"/>
<path d="M103 220V232.776L116.676 243.676L124.488 227.46L103 220Z" fill="#0F7ED9"/>
<path d="M103 220V232.776L116.676 243.676L124.488 227.46L103 220Z" fill="white" fill-opacity="0.2"/>
<path d="M103 220V232.776L116.676 243.676L124.488 227.46L103 220Z" fill="white" fill-opacity="0.2"/>
<path d="M127.092 252.108L146.952 242.703L154.766 260.216L145.324 267.027L127.092 252.108Z" fill="#0F7ED9"/>
<path d="M148.906 241.081L156.719 258.595L177.882 242.703L162.254 228.757L148.906 241.081Z" fill="#0F7ED9"/>
<path d="M160.626 259.243L186.998 238.811V275.846L160.626 259.243Z" fill="#0F7ED9"/>
<path d="M160.626 259.243L186.998 238.811V275.846L160.626 259.243Z" fill="black" fill-opacity="0.2"/>
<path d="M162.58 285.514L178.533 273.189L187 278.473V292L162.58 285.514Z" fill="#0F7ED9"/>
<path d="M162.58 285.514L178.533 273.189L187 278.473V292L162.58 285.514Z" fill="black" fill-opacity="0.2"/>
<path d="M162.58 285.514L178.533 273.189L187 278.473V292L162.58 285.514Z" fill="black" fill-opacity="0.2"/>
<path d="M162.58 285.514L178.533 273.189L187 278.473V292L162.58 285.514Z" fill="black" fill-opacity="0.2"/>
<path d="M164.533 227.46L179.835 241.405L186.998 236.028V220L164.533 227.46Z" fill="#0F7ED9"/>
<path d="M159.975 261.514V284.992L176.579 272.216L159.975 261.514Z" fill="#0F7ED9"/>
<path d="M159.975 261.514V284.992L176.579 272.216L159.975 261.514Z" fill="black" fill-opacity="0.2"/>
<path d="M159.975 261.514V284.992L176.579 272.216L159.975 261.514Z" fill="black" fill-opacity="0.2"/>
<path d="M103 265.405V291.676L129.046 284.541L110.163 263.46L103 265.405Z" fill="#0F7ED9"/>
<path d="M103 265.405V291.676L129.046 284.541L110.163 263.46L103 265.405Z" fill="black" fill-opacity="0.2"/>
<path d="M103 235.892V262.887L128.069 256L103 235.892Z" fill="#0F7ED9"/>
<path d="M103 235.892V262.887L128.069 256L103 235.892Z" fill="white" fill-opacity="0.2"/>
<path d="M126.441 228.108L118.627 244.973L125.139 250.487L144.022 241.405L126.441 228.108Z" fill="#0F7ED9"/>
<path d="M126.441 228.108L118.627 244.973L125.139 250.487L144.022 241.405L126.441 228.108Z" fill="white" fill-opacity="0.2"/>
<path d="M213.99 272V249.322H219.096V255.21L217.992 255.854C218.268 254.535 218.651 253.431 219.142 252.542C219.663 251.653 220.261 250.947 220.936 250.426C221.611 249.874 222.331 249.491 223.098 249.276C223.895 249.031 224.693 248.908 225.49 248.908C226.717 248.908 227.867 249.153 228.94 249.644C230.013 250.104 230.918 250.871 231.654 251.944C232.421 252.987 232.942 254.413 233.218 256.222L230.228 257.05C230.688 255.087 231.332 253.523 232.16 252.358C232.988 251.162 233.954 250.288 235.058 249.736C236.193 249.184 237.419 248.908 238.738 248.908C240.67 248.908 242.219 249.337 243.384 250.196C244.58 251.024 245.454 252.128 246.006 253.508C246.558 254.857 246.834 256.314 246.834 257.878V272H241.728V259.12C241.728 257.863 241.575 256.805 241.268 255.946C240.992 255.087 240.547 254.443 239.934 254.014C239.321 253.554 238.539 253.324 237.588 253.324C236.576 253.324 235.733 253.585 235.058 254.106C234.383 254.597 233.862 255.363 233.494 256.406C233.157 257.449 232.988 258.737 232.988 260.27V272H227.882V258.89C227.882 257.019 227.529 255.624 226.824 254.704C226.119 253.784 225.122 253.324 223.834 253.324C222.822 253.324 221.963 253.585 221.258 254.106C220.553 254.627 220.016 255.409 219.648 256.452C219.28 257.464 219.096 258.737 219.096 260.27V272H213.99ZM262.745 272.414C260.598 272.414 258.666 271.908 256.949 270.896C255.232 269.884 253.882 268.489 252.901 266.71C251.95 264.931 251.475 262.907 251.475 260.638C251.475 258.369 251.95 256.345 252.901 254.566C253.882 252.787 255.216 251.407 256.903 250.426C258.62 249.414 260.568 248.908 262.745 248.908C264.953 248.908 266.885 249.414 268.541 250.426C270.228 251.407 271.562 252.787 272.543 254.566C273.524 256.345 274.015 258.369 274.015 260.638C274.015 262.907 273.524 264.931 272.543 266.71C271.592 268.489 270.258 269.884 268.541 270.896C266.854 271.908 264.922 272.414 262.745 272.414ZM262.791 267.906C264.048 267.906 265.137 267.615 266.057 267.032C266.977 266.449 267.682 265.606 268.173 264.502C268.664 263.398 268.909 262.11 268.909 260.638C268.909 259.135 268.664 257.847 268.173 256.774C267.682 255.67 266.977 254.827 266.057 254.244C265.137 253.661 264.048 253.37 262.791 253.37C261.472 253.37 260.353 253.677 259.433 254.29C258.513 254.873 257.808 255.701 257.317 256.774C256.826 257.847 256.581 259.135 256.581 260.638C256.581 262.11 256.826 263.398 257.317 264.502C257.808 265.606 258.513 266.449 259.433 267.032C260.353 267.615 261.472 267.906 262.791 267.906ZM288.745 272.414C286.966 272.414 285.387 272.107 284.007 271.494C282.658 270.85 281.523 269.976 280.603 268.872C279.714 267.737 279.039 266.465 278.579 265.054C278.119 263.643 277.889 262.171 277.889 260.638C277.889 259.105 278.119 257.633 278.579 256.222C279.039 254.811 279.714 253.554 280.603 252.45C281.523 251.346 282.658 250.487 284.007 249.874C285.387 249.23 286.966 248.908 288.745 248.908C290.984 248.908 292.931 249.445 294.587 250.518C296.274 251.591 297.516 253.247 298.313 255.486L293.805 257.234C293.437 256.069 292.839 255.133 292.011 254.428C291.183 253.692 290.094 253.324 288.745 253.324C287.396 253.324 286.292 253.677 285.433 254.382C284.605 255.087 283.992 255.992 283.593 257.096C283.194 258.2 282.995 259.381 282.995 260.638C282.995 261.895 283.194 263.091 283.593 264.226C283.992 265.33 284.605 266.235 285.433 266.94C286.292 267.615 287.396 267.952 288.745 267.952C290.094 267.952 291.183 267.599 292.011 266.894C292.839 266.189 293.437 265.253 293.805 264.088L298.313 265.836C297.516 268.044 296.274 269.7 294.587 270.804C292.931 271.877 290.984 272.414 288.745 272.414ZM318.299 272L311.445 261.19L307.581 265.468V258.982L316.827 249.322H323.359L315.171 257.786L324.371 272H318.299ZM302.935 272V239.938H308.041V272H302.935ZM342.63 272L342.262 268.182V257.694C342.262 256.222 341.817 255.118 340.928 254.382C340.038 253.615 338.796 253.232 337.202 253.232C335.975 253.232 334.764 253.477 333.568 253.968C332.402 254.428 331.329 255.149 330.348 256.13L327.496 252.772C328.968 251.392 330.532 250.411 332.188 249.828C333.844 249.215 335.653 248.908 337.616 248.908C340.682 248.908 343.059 249.69 344.746 251.254C346.463 252.787 347.322 254.934 347.322 257.694V272H342.63ZM335.592 272.414C333.905 272.414 332.402 272.107 331.084 271.494C329.796 270.881 328.784 270.022 328.048 268.918C327.342 267.814 326.99 266.526 326.99 265.054C326.99 263.797 327.25 262.708 327.772 261.788C328.324 260.868 329.029 260.147 329.888 259.626C330.624 259.166 331.482 258.844 332.464 258.66C333.445 258.445 334.472 258.338 335.546 258.338H342.676V262.156H336.282C335.73 262.156 335.178 262.217 334.626 262.34C334.074 262.432 333.583 262.616 333.154 262.892C332.847 263.137 332.586 263.444 332.372 263.812C332.188 264.18 332.096 264.609 332.096 265.1C332.096 266.081 332.464 266.863 333.2 267.446C333.966 267.998 334.978 268.274 336.236 268.274C337.34 268.274 338.336 268.029 339.226 267.538C340.146 267.047 340.882 266.373 341.434 265.514C341.986 264.655 342.262 263.689 342.262 262.616L343.826 265.146C343.458 266.741 342.875 268.09 342.078 269.194C341.28 270.267 340.33 271.08 339.226 271.632C338.122 272.153 336.91 272.414 335.592 272.414ZM353.023 272V249.322H358.175V255.44L357.209 255.578C357.363 254.259 357.807 253.109 358.543 252.128C359.279 251.116 360.169 250.334 361.211 249.782C362.285 249.199 363.343 248.908 364.385 248.908C365.121 248.908 365.827 249 366.501 249.184C367.176 249.368 367.881 249.675 368.617 250.104L366.133 254.704C365.796 254.489 365.351 254.321 364.799 254.198C364.278 254.045 363.772 253.968 363.281 253.968C362.637 253.968 361.993 254.091 361.349 254.336C360.736 254.581 360.184 254.965 359.693 255.486C359.203 255.977 358.835 256.621 358.589 257.418C358.436 257.847 358.313 258.415 358.221 259.12C358.16 259.795 358.129 260.745 358.129 261.972V272H353.023ZM380.574 272.414C379.439 272.414 378.366 272.199 377.354 271.77C376.372 271.31 375.59 270.589 375.008 269.608C374.425 268.596 374.134 267.277 374.134 265.652V243.802L379.286 240.95V264.226C379.286 265.514 379.47 266.511 379.838 267.216C380.236 267.891 380.942 268.228 381.954 268.228C382.26 268.228 382.613 268.197 383.012 268.136C383.441 268.044 383.886 267.937 384.346 267.814V271.77C383.732 271.985 383.104 272.138 382.46 272.23C381.846 272.353 381.218 272.414 380.574 272.414ZM369.81 253.278V249.322H384.346V253.278H369.81ZM390.894 281.338L395.402 270.482L386.754 249.322H392.366L398.116 265.376L403.958 249.322H409.478L396.414 281.338H390.894Z" fill="#021F52"/>
</svg>
